<svg width="9" height="18" viewBox="0 0 9 18" fill="#32ADE6" xmlns="http://www.w3.org/2000/svg">
<path d="M8.08999 0.330011C8.27999 0.330011 8.46999 0.400011 8.61999 0.550011C8.90999 0.840012 8.90999 1.32001 8.61999 1.61001L2.09999 8.13001C1.61999 8.61001 1.61999 9.39001 2.09999 9.87001L8.61999 16.39C8.90999 16.68 8.90999 17.16 8.61999 17.45C8.32999 17.74 7.84999 17.74 7.55999 17.45L1.03999 10.93C0.529993 10.42 0.239993 9.73001 0.239993 9.00001C0.239993 8.27001 0.519993 7.58001 1.03999 7.07001L7.55999 0.550011C7.70999 0.410011 7.89999 0.330011 8.08999 0.330011Z" />
</svg>
